<svg width="80" height="80" viewBox="0 0 80 80" fill="none" xmlns="http://www.w3.org/2000/svg">
<rect width="80" height="80" fill="#fafafa"/>
<path d="M41.8623 14.0546C41.5307 14.0546 41.2627 14.2947 41.2627 14.5906V20.1064C35.2183 20.3808 30.3741 24.7454 30.1301 30.1631H29.5995C29.268 30.1631 29 30.4032 29 30.6991V33.5749C29 33.8707 29.268 34.1108 29.5995 34.1108H30.2063L32.5792 56.4774C32.608 56.7529 32.8664 56.963 33.1757 56.963H50.5494C50.8588 56.963 51.1172 56.7529 51.146 56.4774L53.5189 34.1108H54.1256C54.4572 34.1108 54.7251 33.8707 54.7251 33.5749V30.6991C54.7251 30.4032 54.4572 30.1631 54.1256 30.1631H53.595C53.351 24.7454 48.5068 20.3808 42.4624 20.1064V14.5906C42.4618 14.2947 42.1932 14.0546 41.8623 14.0546ZM41.2627 21.1782V30.1631H31.3286C31.5714 25.3365 35.879 21.4505 41.2627 21.1782ZM53.5255 31.235V33.039H42.4618V31.235H53.5255ZM41.2627 33.039H30.1985V31.235H41.2621V33.039H41.2627ZM41.2627 34.1108V36.9657H31.7123L31.4095 34.1108H41.2627ZM50.0039 55.8906H33.7207L31.8268 38.0376H51.8984L50.0039 55.8906ZM52.0117 36.9657H42.4618V34.1108H52.3144L52.0117 36.9657ZM52.3954 30.1631H42.4618V21.1782C47.845 21.4505 52.1526 25.3365 52.3954 30.1631Z" fill="black"/>
</svg>
