<svg width="142" height="142" viewBox="0 0 142 142" fill="none" xmlns="http://www.w3.org/2000/svg">
<rect width="142" height="142" fill="#52ba0e"/>
<path d="M114.012 41.1379C132.485 50.2632 141.388 69.1817 141.833 70.2945C142.056 70.9622 142.056 71.6299 141.833 72.0751C141.388 73.1879 132.485 92.1064 113.789 101.232C106.444 81.8681 106.444 60.5014 114.012 41.1379ZM122.692 75.6362C125.14 75.6362 127.143 73.6331 127.143 71.1848C127.143 68.7365 125.14 66.7334 122.692 66.7334C120.244 66.7334 118.241 68.7365 118.241 71.1848C118.241 73.6331 120.244 75.6362 122.692 75.6362Z" fill="white"/>
<path d="M5.6201 76.749C7.40066 75.191 10.2941 72.2976 10.2941 71.1848C10.2941 70.0719 7.40066 67.4011 5.6201 65.6205C-3.28269 57.1629 0.278429 53.1566 4.28468 52.2664C10.0715 50.9309 19.8646 56.9403 29.6576 63.6174C37.4476 57.608 49.0212 49.5955 61.7077 43.5861C61.4851 39.5799 59.7045 34.0156 56.1434 27.3385C55.6983 26.6708 55.9209 25.7806 56.1434 25.1128C56.5886 24.4451 57.2563 24 58.1466 24C74.1716 24 87.9709 28.2288 95.9834 35.7962C101.102 36.2413 105.554 37.3542 109.783 38.9122C101.77 59.6112 101.77 82.3133 109.783 102.79C100.657 106.351 92.6448 106.573 83.9646 105.238C77.065 107.909 68.8299 110.134 60.1497 111.247C59.9271 111.247 59.2594 111.47 58.3691 110.58C57.924 110.134 57.7014 109.467 57.7014 108.799V95.89C46.3504 90.3258 36.5573 83.2035 29.6576 78.0844C19.8646 84.7615 10.0715 90.7709 4.28468 89.4355C0.0558592 89.2129 -3.28269 85.2067 5.6201 76.749ZM81.7389 71.1848C81.7389 73.4105 82.6292 75.4136 84.1872 76.749C82.6292 78.0844 81.7389 80.0876 81.7389 82.3133C81.7389 86.5421 85.3 90.1032 89.5289 90.1032C90.8643 90.1032 91.7546 89.2129 91.7546 87.8775C91.7546 86.5421 90.8643 85.6518 89.5289 85.6518C87.7483 85.6518 86.1903 84.0938 86.1903 82.3133C86.1903 80.5327 87.7483 78.9747 89.5289 78.9747C90.8643 78.9747 91.7546 78.0844 91.7546 76.749C91.7546 75.4136 90.8643 74.5233 89.5289 74.5233C87.7483 74.5233 86.1903 72.9653 86.1903 71.1848C86.1903 69.4042 87.7483 67.8462 89.5289 67.8462C90.8643 67.8462 91.7546 66.956 91.7546 65.6205C91.7546 64.2851 90.8643 63.3948 89.5289 63.3948C87.7483 63.3948 86.1903 61.8369 86.1903 60.0563C86.1903 58.2757 87.7483 56.7177 89.5289 56.7177C90.8643 56.7177 91.7546 55.8275 91.7546 54.492C91.7546 53.1566 90.8643 52.2664 89.5289 52.2664C85.3 52.2664 81.7389 55.8275 81.7389 60.0563C81.7389 62.282 82.6292 64.2851 84.1872 65.6205C82.6292 67.1785 81.7389 68.9591 81.7389 71.1848ZM67.4945 76.749C67.4945 80.9778 71.0556 84.539 75.2844 84.539C76.6198 84.539 77.5101 83.6487 77.5101 82.3133C77.5101 80.9778 76.6198 80.0876 75.2844 80.0876C73.5039 80.0876 71.9459 78.5296 71.9459 76.749C71.9459 74.9685 73.5039 73.4105 75.2844 73.4105C76.6198 73.4105 77.5101 72.5202 77.5101 71.1848C77.5101 69.8494 76.6198 68.9591 75.2844 68.9591C73.5039 68.9591 71.9459 67.4011 71.9459 65.6205C71.9459 63.84 73.5039 62.282 75.2844 62.282C76.6198 62.282 77.5101 61.3917 77.5101 60.0563C77.5101 58.7209 76.6198 57.8306 75.2844 57.8306C71.0556 57.8306 67.4945 61.3917 67.4945 65.6205C67.4945 67.8462 68.3848 69.8494 69.9427 71.1848C68.3848 72.7428 67.4945 74.5233 67.4945 76.749ZM60.8174 78.9747C62.1528 78.9747 63.0431 78.0844 63.0431 76.749C63.0431 75.4136 62.1528 74.5233 60.8174 74.5233C59.0368 74.5233 57.4788 72.9653 57.4788 71.1848C57.4788 69.4042 59.0368 67.8462 60.8174 67.8462C62.1528 67.8462 63.0431 66.956 63.0431 65.6205C63.0431 64.2851 62.1528 63.3948 60.8174 63.3948C56.5886 63.3948 53.0275 66.956 53.0275 71.1848C53.0275 75.4136 56.5886 78.9747 60.8174 78.9747Z" fill="white"/>
</svg>
