<svg width="80" height="80" viewBox="0 0 80 80" fill="none" xmlns="http://www.w3.org/2000/svg">
<rect width="80" height="80" fill="#fafafa"/>
<path d="M19.7128 48.5653L62.6599 63.4246C62.9479 63.5244 63.2449 63.5726 63.5371 63.5726C64.1557 63.5726 64.7558 63.3554 65.2184 62.943C65.8994 62.3358 66.1082 61.4599 65.7632 60.6575L49.2156 22.1577C48.7686 21.1172 47.5746 20.5181 46.3188 20.6951C40.4562 21.5248 34.4573 24.6513 28.4897 29.9859C22.4332 35.4004 18.9148 40.7828 18.0322 45.9828C17.839 47.1172 18.5296 48.1797 19.7128 48.5653ZM56.3125 41.6619C54.7537 42.04 53.0911 41.3186 52.5049 39.9391C51.9223 38.5676 52.6189 37.0503 54.0517 36.4013L56.3125 41.6619ZM61.4551 61.8574C61.7149 61.1151 61.6735 60.3229 61.3249 59.6009C60.9397 58.8023 60.2305 58.1855 59.3263 57.8642C58.4227 57.544 57.4327 57.5563 56.5393 57.9001C55.7125 58.2187 55.0717 58.7937 54.6943 59.5178L42.438 55.2773C42.9156 55.095 43.3644 54.8322 43.7538 54.4841C44.547 53.7755 44.9838 52.8331 44.9838 51.8307C44.9838 50.8277 44.547 49.8853 43.7538 49.1768C42.1158 47.7131 39.4524 47.7141 37.8162 49.1768C36.5447 50.3133 36.2657 52.0013 36.9689 53.3851L25.9157 49.5608C26.3165 47.2829 27.3131 44.9578 28.8911 42.6026C28.8911 42.6139 28.8893 42.6246 28.8893 42.6359C28.8893 44.0825 29.5199 45.4427 30.6641 46.466C31.8083 47.4894 33.3299 48.0526 34.9487 48.0526C36.5675 48.0526 38.0886 47.4889 39.2334 46.466C40.3782 45.4432 41.0082 44.083 41.0082 42.6359C41.0082 41.1888 40.3776 39.8291 39.2334 38.8058C38.0892 37.7824 36.5675 37.2192 34.9487 37.2192C34.3601 37.2192 33.7853 37.2959 33.2357 37.4397C33.7931 36.8888 34.3775 36.3369 34.9961 35.7845C36.6197 34.3331 38.1522 33.1515 39.5796 32.1823C38.9964 33.7018 39.3762 35.4541 40.7304 36.6646C41.6766 37.5105 42.9198 37.9336 44.1636 37.9336C45.4074 37.9336 46.6506 37.5105 47.5968 36.6646C49.4892 34.9724 49.4892 32.2193 47.5968 30.5271C46.8078 29.8218 45.8112 29.4147 44.781 29.2977C47.4138 28.1725 49.3314 27.8732 50.3262 27.7316L53.6167 35.387C51.5665 36.2495 50.5674 38.396 51.3847 40.3204C51.7999 41.2993 52.6177 42.0749 53.6857 42.5034C54.2599 42.7346 54.8701 42.8504 55.4815 42.8504C55.9081 42.8504 56.3341 42.7909 56.7505 42.6777L64.6442 61.0426C64.8188 61.4497 64.7173 61.8761 64.3723 62.184C64.0267 62.4919 63.5479 62.5809 63.0949 62.4243L61.4551 61.8574ZM41.5782 31.2855C42.291 30.6483 43.227 30.3302 44.163 30.3302C45.099 30.3302 46.035 30.6488 46.7478 31.2855C48.1722 32.5593 48.1722 34.6324 46.7478 35.9062C45.3222 37.1801 43.0032 37.179 41.5788 35.9062C40.1532 34.6324 40.1532 32.5593 41.5782 31.2855ZM31.5119 39.5642C32.4293 38.7436 33.6497 38.2919 34.9481 38.2919C36.2465 38.2919 37.4663 38.7436 38.3844 39.5642C39.3024 40.3843 39.8076 41.4752 39.8076 42.6359C39.8076 43.7966 39.3024 44.887 38.3844 45.7076C37.4669 46.5283 36.2465 46.9799 34.9481 46.9799C33.6497 46.9799 32.4299 46.5283 31.5119 45.7076C30.5939 44.8875 30.0887 43.7966 30.0887 42.6359C30.0887 41.4752 30.5939 40.3843 31.5119 39.5642ZM38.6646 53.7262C37.4957 52.6814 37.4957 50.9806 38.6646 49.9357C39.2496 49.4128 40.017 49.1521 40.785 49.1521C41.5524 49.1521 42.3204 49.4128 42.9048 49.9357C43.4712 50.4421 43.7832 51.1152 43.7832 51.8312C43.7832 52.5467 43.4712 53.2199 42.9048 53.7262C41.7354 54.771 39.834 54.7726 38.6646 53.7262ZM55.8151 59.9061C56.3791 58.9133 57.6997 58.4397 58.8829 58.8613C59.4889 59.0764 59.9647 59.4899 60.2227 60.0252C60.4447 60.4864 60.4711 60.9885 60.3235 61.4658L55.8151 59.9061ZM20.1352 47.5613C19.474 47.3457 19.1104 46.7771 19.2184 46.1437C20.0506 41.2441 23.5498 35.9196 29.3381 30.7448C35.1233 25.5733 40.8996 22.5488 46.506 21.7544C47.2146 21.6573 47.85 21.9711 48.0948 22.5423L49.8852 26.7082C47.604 27.0472 41.805 28.1794 34.1465 35.0261C28.8071 39.7986 25.6601 44.5539 24.7757 49.1671L20.1352 47.5613Z" fill="black"/>
<path d="M56.7957 54.9373C58.4697 53.4408 58.4697 51.0052 56.7957 49.5088C55.1211 48.0118 52.3977 48.0118 50.7231 49.5088C49.9112 50.2339 49.4648 51.1972 49.4648 52.2233C49.4648 53.2493 49.9112 54.2126 50.7231 54.9378C51.5607 55.6866 52.6599 56.0604 53.7597 56.0604C54.8595 56.0604 55.9581 55.686 56.7957 54.9373ZM55.9467 54.1788C54.7395 55.2569 52.7781 55.2569 51.5709 54.1788C50.9859 53.6559 50.6643 52.9613 50.6643 52.2233C50.6643 51.4853 50.9859 50.7901 51.5709 50.2677C52.1739 49.7287 52.9665 49.4589 53.7585 49.4589C54.5505 49.4589 55.3431 49.7287 55.9461 50.2677C57.1533 51.3458 57.1533 53.1002 55.9467 54.1788Z" fill="black"/>
<path d="M49.9121 46.7369C50.6567 46.0713 51.0671 45.1863 51.0671 44.245C51.0671 43.3037 50.6567 42.4187 49.9121 41.753C48.3761 40.38 45.8753 40.3789 44.3375 41.753C42.8003 43.1267 42.8003 45.3622 44.3375 46.7364C45.1061 47.4229 46.1159 47.7667 47.1251 47.7667C48.1343 47.7672 49.1441 47.4234 49.9121 46.7369ZM49.8671 44.2455C49.8671 44.9004 49.5815 45.5156 49.0637 45.9785C47.9951 46.9332 46.2557 46.9343 45.1859 45.9785C44.1173 45.0227 44.1173 43.4672 45.1859 42.512C45.7211 42.0341 46.4231 41.7954 47.1245 41.7954C47.8271 41.7954 48.5291 42.0341 49.0631 42.512C49.5815 42.9749 49.8671 43.5906 49.8671 44.2455Z" fill="black"/>
</svg>
