<svg width="142" height="142" viewBox="0 0 142 142" fill="none" xmlns="http://www.w3.org/2000/svg">
<rect width="142" height="142" fill="#52ba0e"/>
<path d="M117 56.2686V67.3581H25V56.2686H84.0568C86.378 54.8434 87.5386 53.1511 87.5386 51.1915C87.5386 47.9848 86.0655 45.4017 83.1194 43.4422C80.1732 41.4826 75.7094 40.5028 69.7278 40.5028C60.7108 40.5028 51.7385 42.3287 42.8108 45.9807L37.8559 29.5468C48.212 25.1823 58.6128 23 69.0582 23C77.0932 23 84.1014 24.2025 90.083 26.6074C96.1538 29.0124 100.796 32.4417 104.01 36.8953C107.313 41.2599 108.965 46.3815 108.965 52.2603C108.965 53.6855 108.831 55.0216 108.563 56.2686H117ZM25 74.7066H117V85.7961H60.2198C56.4702 87.4885 54.5953 89.7153 54.5953 92.4766C54.5953 95.505 56.0684 97.9545 59.0146 99.8251C61.9607 101.607 66.5138 102.497 72.6739 102.497C78.2984 102.497 83.9675 101.785 89.6812 100.36C95.395 98.9343 100.35 97.0193 104.546 94.6143L110.036 110.915C104.323 113.854 98.2965 116.125 91.9578 117.729C85.6191 119.243 79.3697 120 73.2096 120C64.9961 120 57.854 118.842 51.7831 116.526C45.8016 114.121 41.1591 110.736 37.8559 106.372C34.6419 101.918 33.0349 96.7521 33.0349 90.8733C33.0349 89.0918 33.2581 87.3995 33.7045 85.7961H25V74.7066Z" fill="white"/>
</svg>
