<svg width="80" height="80" viewBox="0 0 80 80" fill="none" xmlns="http://www.w3.org/2000/svg">
<rect width="80" height="80" fill="#fafafa"/>
<path d="M46.5438 22.1432C45.9417 21.2422 44.8446 21.0486 43.8438 21.2883C42.7225 21.5669 41.6076 22.3327 40.675 23.2998C39.7595 22.8616 38.737 22.5973 37.7875 22.8975C36.857 23.2999 36.3385 24.0658 36.1 25.1271C35.1041 24.2533 34.1593 23.2884 33.2688 22.3276C32.9049 22.0667 32.7407 22.1496 32.4063 22.2773C31.3296 23.1196 30.4353 23.9809 29.6875 24.8589C28.6264 24.4053 27.6012 24.0238 26.5 24.0542C25.3599 24.0857 24.2288 24.6709 23.0688 25.8144C21.8585 25.1838 20.5842 24.9841 19.5813 25.5127C18.5214 26.0712 17.9373 27.2785 17.8563 28.815C17.2586 29.1622 16.8034 29.662 16.5625 30.2735C15.8762 32.4418 16.3242 34.6357 17.0875 36.2412C16.908 36.1268 16.6886 36.1268 16.5063 36.0904C16.2245 36.1302 15.9966 36.3718 16 36.6268C16.0144 37.6375 16.1652 39.1334 16.5625 40.4321C16.7612 41.0814 17.0126 41.6759 17.3875 42.1587C17.6593 42.5087 18.063 42.7556 18.5125 42.8963C19.5121 48.2272 21.4005 53.3785 24.175 57.2625C26.995 61.21 30.7792 63.8861 35.3875 63.9008C40.0015 64.0228 45.4 63.9777 48.775 63.9008C53.6011 63.9008 57.5445 61.3901 60.3812 57.4972C63.1589 53.6855 64.9473 48.5206 65.725 42.9131C66.1357 42.786 66.5047 42.5707 66.7375 42.2593C67.0705 41.8139 67.2345 41.2746 67.3562 40.6668C67.5999 39.4511 67.6 37.9639 67.6 36.6268C67.6042 36.3157 67.25 36.0417 66.9063 36.0903C67.2571 34.7162 66.4738 33.5849 65.3875 32.8382C65.8867 32.2947 66.2162 31.7566 66.1938 31.2289C66.1648 30.5478 65.6044 30.0358 64.9375 29.7873C63.7863 29.3582 62.1948 29.5305 60.7 30.1226C60.4023 28.9663 60.0183 27.8421 59.1625 27.1722C58.6611 26.7797 57.9179 26.5971 57.1938 26.8034C56.6941 26.9458 56.1951 27.2891 55.675 27.7254C54.9184 25.7822 53.4402 24.7244 51.9063 24.1716C52.1832 23.534 52.3144 22.9516 52.1688 22.445C51.9825 21.7969 51.3916 21.3245 50.7063 21.1542C49.2382 20.8219 47.6326 21.5141 46.5438 22.1432V22.1432ZM50.3875 22.1935C50.7674 22.2879 50.9262 22.4348 51.0062 22.7131C51.0863 22.9914 51.0475 23.481 50.6312 24.205C50.481 24.446 50.6008 24.7803 50.8562 24.9259C48.6077 25.3825 47.2266 26.1849 45.9437 26.9207C44.688 26.4211 43.1945 26.1609 41.5938 26.5016C40.5452 26.7248 39.4728 27.2033 38.4438 27.9768L36.9813 26.3843C37.199 25.3654 37.2831 24.4458 38.2 23.9033C38.7675 23.7238 39.6766 23.9028 40.4875 24.3727C40.7368 24.5211 41.1099 24.4667 41.2938 24.2553C42.1379 23.2765 43.2819 22.5463 44.1625 22.3275C45.0613 22.1255 45.4086 22.464 45.7 22.9981C45.7898 23.349 46.34 23.5226 46.6562 23.2998C47.8519 22.5749 49.0239 22.0433 50.3875 22.1935V22.1935ZM33.1 23.853L35.4813 26.4681C35.3906 26.4485 35.2973 26.4346 35.2 26.4346C34.5373 26.4346 34 26.9149 34 27.5075C34 28.1 34.5373 28.5803 35.2 28.5803C35.8627 28.5803 36.4 28.1 36.4 27.5075C36.4 27.4905 36.4006 27.474 36.4 27.4572L37.5625 28.7312C37.2571 29.023 36.9552 29.3507 36.6625 29.7035C36.0206 29.5726 35.4686 29.7333 34.8625 29.9885C34.3801 30.2193 33.8792 30.5914 33.3438 31.0613C32.1203 28.6239 32.5741 25.9066 33.1 23.8531V23.853ZM31.7125 24.5068C31.1376 27.2267 31.2875 29.6927 32.4625 31.8659C31.3046 31.9493 30.3825 32.3675 29.8188 33.0729C29.2677 33.7624 28.9893 34.6408 28.7313 35.6042C28.4699 35.6115 28.2145 35.6435 27.9625 35.6712C27.577 31.3816 28.223 28.366 30.6063 25.5797C30.9967 25.2152 31.3694 24.8564 31.7125 24.5068ZM26.5375 25.1271C27.2472 25.1075 28.0545 25.363 28.9938 25.7473C28.1207 26.9624 27.5078 28.2348 27.1375 29.6196C25.1959 29.4591 23.2159 29.2495 21.2875 29.1167C21.087 29.1502 20.9105 29.2817 20.8375 29.452C20.2221 30.8274 19.8876 32.0121 20.05 33.3914C20.1971 34.6407 20.7557 36.0405 21.7563 37.9007C20.8206 37.6128 19.8751 37.2859 18.9063 36.9285C17.4161 35.4307 16.9788 32.5023 17.6875 30.6254C17.8844 30.1257 18.2063 29.7845 18.6625 29.5861C18.8593 29.5006 18.9947 29.3123 19 29.1167C19 27.6477 19.5458 26.7961 20.2 26.4514C20.8542 26.1066 21.7541 26.1429 22.8438 26.8537C23.0869 27.0193 23.4734 26.98 23.6688 26.7698C24.8245 25.5134 25.679 25.1508 26.5375 25.1271ZM53.1437 25.8981C53.9328 26.4253 54.5769 27.2128 54.8875 28.5635C54.9668 28.9625 55.6457 29.1251 55.9375 28.815C56.6587 28.0623 57.1896 27.9339 57.5687 27.8259C57.9479 27.7179 58.1155 27.7737 58.375 27.9768C58.8939 28.383 59.4098 29.6383 59.7062 30.9271C59.7864 31.2536 60.262 31.4436 60.5875 31.2792C61.9538 30.5662 63.672 30.4793 64.4687 30.7763C64.8671 30.9247 64.9847 31.067 64.9937 31.2792C65.0028 31.4914 64.8276 31.9308 64.1312 32.5364C63.8714 32.7607 63.9206 33.2008 64.225 33.3746C65.8121 34.2508 65.9868 35.423 65.3687 36.6435C61.2692 38.1098 57.5543 39.0527 53.6312 39.6273C55.1204 36.3438 55.5679 32.0625 55 29.0161C54.6917 28.5915 54.5086 28.5495 54.0625 28.6641L52.6 29.5526C52.5432 29.0073 52.0248 28.5803 51.4 28.5803C50.7373 28.5803 50.2 29.0607 50.2 29.6532C50.2 30.0763 50.477 30.4341 50.875 30.6087L41.575 36.2747C41.6765 36.0215 41.7708 35.7721 41.8188 35.5539C42.0331 34.3248 41.3707 33.4698 40.0938 33.3076C39.6051 33.2503 38.895 33.3129 38.2 33.3746C38.2607 32.6867 38.3206 31.9952 38.2 31.4636C38.0996 31.0206 37.9276 30.6229 37.6563 30.3069C39.0425 28.6467 40.4877 27.8491 41.8563 27.5577C43.2776 27.2552 44.6449 27.4884 45.7375 27.9768C45.9254 28.0605 46.1628 28.0473 46.3375 27.9433C48.5437 26.5751 50.7071 25.7865 53.1437 25.8981V25.8981ZM49 26.971C48.3373 26.971 47.8 27.4514 47.8 28.0439C47.8 28.6364 48.3373 29.1167 49 29.1167C49.6628 29.1167 50.2 28.6364 50.2 28.0439C50.2 27.4514 49.6628 26.971 49 26.971ZM43 28.5803C42.3373 28.5803 41.8 29.0607 41.8 29.6532C41.8 30.2457 42.3373 30.726 43 30.726C43.6628 30.726 44.2 30.2457 44.2 29.6532C44.2 29.0607 43.6628 28.5803 43 28.5803ZM47.8 29.6532C47.1373 29.6532 46.6 30.1335 46.6 30.726C46.6 31.3185 47.1373 31.7989 47.8 31.7989C48.4628 31.7989 49 31.3185 49 30.726C49 30.1335 48.4628 29.6532 47.8 29.6532V29.6532ZM53.725 30.1561C53.1868 34.1116 49.6947 37.3756 46.45 40.2811C45.3676 40.3252 44.2555 40.339 43.0938 40.3482C43.3924 39.8158 43.7632 39.0914 43.675 38.3031C43.589 37.5357 43.1647 37.2731 42.5875 36.962L47.275 34.0954C47.224 34.2146 47.2 34.3458 47.2 34.481C47.2 35.0735 47.7373 35.5539 48.4 35.5539C49.0628 35.5539 49.6 35.0735 49.6 34.481C49.6 33.8885 49.0628 33.4082 48.4 33.4082L49.2063 32.922C49.4219 33.2074 49.7858 33.4082 50.2 33.4082C50.8628 33.4082 51.4 32.9278 51.4 32.3353C51.4 32.105 51.3132 31.8898 51.175 31.715L53.725 30.1561ZM40.6 30.1896C39.9373 30.1896 39.4 30.6699 39.4 31.2624C39.4 31.855 39.9373 32.3353 40.6 32.3353C41.2628 32.3353 41.8 31.855 41.8 31.2624C41.8 30.6699 41.2628 30.1896 40.6 30.1896ZM22.3188 30.2734L26.9125 30.6757C26.6311 32.2452 26.6025 33.9588 26.7813 35.8724C26.2005 36.0072 25.6263 36.1962 25.0563 36.4088L22.3188 30.2734ZM36.4938 30.7931C36.6871 30.8874 36.8982 31.1498 37.0188 31.6815C37.1393 32.2132 37.1432 32.9645 37.0001 33.8608C36.948 34.1931 37.3237 34.5199 37.6938 34.4643C38.7161 34.3337 39.4492 34.3079 39.9251 34.3637C40.7382 34.4696 40.6617 34.8522 40.6375 35.336C40.5485 35.7411 40.3324 36.3029 40.0375 36.962C39.8901 37.2878 40.2069 37.7032 40.6 37.6996C41.4638 37.6895 42.1505 37.8256 42.475 38.4204C42.52 38.8226 42.1521 39.8134 41.8563 40.365C35.1313 40.3577 29.4332 40.0593 23.2375 38.3533C25.3134 37.4217 27.09 36.6267 29.2 36.6267C29.4687 36.6251 29.7225 36.442 29.7813 36.2076C30.0572 35.1215 30.3573 34.2393 30.7938 33.6931C31.2303 33.147 31.7445 32.8717 32.8 32.8717C32.973 32.8669 33.142 32.7914 33.25 32.6706C34.1202 31.763 34.8826 31.2125 35.4438 30.9439C35.8638 30.757 36.1885 30.6794 36.4938 30.7931ZM21.4563 31.2457L23.95 36.8447C23.5364 37.021 23.1072 37.2039 22.675 37.3978C21.8487 35.725 21.3628 34.2317 21.25 33.2741C21.1676 32.574 21.2536 31.9234 21.4563 31.2457ZM43.6 31.2625C42.9373 31.2625 42.4 31.7428 42.4 32.3353C42.4 32.9279 42.9373 33.4082 43.6 33.4082C44.2628 33.4082 44.8 32.9279 44.8 32.3353C44.8 31.7428 44.2628 31.2625 43.6 31.2625ZM53.875 33.5591C53.6836 35.7472 53.1525 38.0344 52.225 39.8285C50.9377 39.9859 49.6188 40.0948 48.25 40.1806C50.386 38.2413 52.591 36.0825 53.875 33.5591ZM46 36.6268C45.3373 36.6268 44.8 37.1071 44.8 37.6996C44.8 38.2921 45.3373 38.7724 46 38.7724C46.6628 38.7724 47.2 38.2921 47.2 37.6996C47.2 37.1071 46.6628 36.6268 46 36.6268ZM66.3625 37.3979C66.3541 38.4879 66.3443 39.6204 66.175 40.4656C66.0691 40.9943 65.9044 41.4159 65.725 41.6558C58.8854 44.8115 49.4758 45.7102 41.7438 45.746C34 45.739 26.3949 45.0517 18.3813 41.5551C18.1343 41.2371 17.9024 40.7267 17.725 40.147C17.4544 39.2626 17.3945 38.3081 17.3313 37.4481C26.0696 40.864 33.3067 41.4378 42.1 41.4378C51.5345 41.4641 59.5369 39.845 66.3625 37.3979ZM19.8063 43.3488C27.2853 45.8047 34.2794 46.8189 41.7438 46.8189C49.3157 46.8189 57.3769 45.8285 64.45 43.3656C63.6472 48.6249 61.9121 53.4203 59.3688 56.9104C56.6843 60.5942 53.1589 62.8148 48.8125 62.8279C46.6 62.9048 39.4 62.9048 35.425 62.8279C31.3164 62.8279 27.8873 60.4551 25.1875 56.6757C22.6464 53.1184 20.8166 48.3416 19.8063 43.3488Z" fill="black"/>
</svg>
