<svg width="80" height="80" viewBox="0 0 80 80" fill="none" xmlns="http://www.w3.org/2000/svg">
<rect width="80" height="80" fill="#fafafa"/>
<path d="M38.783 27.7514C40.2609 27.7514 41.4175 26.7175 41.4175 25.3963C41.4175 24.0752 40.2609 23.0413 38.783 23.0413C38.3974 23.0413 38.1404 23.271 38.1404 23.6157C38.1404 23.9603 38.3974 24.1901 38.783 24.1901C39.5541 24.1901 40.1324 24.707 40.1324 25.3963C40.1324 26.0856 39.5541 26.6026 38.783 26.6026C37.3051 26.6026 36.1484 27.6365 36.1484 28.9577C36.1484 30.2788 37.3051 31.3127 38.783 31.3127C39.1685 31.3127 39.4255 31.083 39.4255 30.7383C39.4255 30.3937 39.1685 30.1639 38.783 30.1639C38.0119 30.1639 37.4336 29.647 37.4336 28.9577C37.4336 28.2684 38.0119 27.7514 38.783 27.7514Z" fill="black"/>
<path d="M44.5662 27.7514C46.0441 27.7514 47.2007 26.7175 47.2007 25.3963C47.2007 24.0752 46.0441 23.0413 44.5662 23.0413C44.1806 23.0413 43.9236 23.271 43.9236 23.6157C43.9236 23.9603 44.1806 24.1901 44.5662 24.1901C45.3373 24.1901 45.9156 24.707 45.9156 25.3963C45.9156 26.0856 45.3373 26.6026 44.5662 26.6026C43.0883 26.6026 41.9316 27.6365 41.9316 28.9577C41.9316 30.2788 43.0883 31.3127 44.5662 31.3127C44.9517 31.3127 45.2088 31.083 45.2088 30.7383C45.2088 30.3937 44.9517 30.1639 44.5662 30.1639C43.7951 30.1639 43.2168 29.647 43.2168 28.9577C43.2168 28.2684 43.7951 27.7514 44.5662 27.7514Z" fill="black"/>
<path d="M29.4016 61.8713V65.3752C29.4016 65.7198 29.6586 65.9496 30.0442 65.9496H53.498C53.8835 65.9496 54.1406 65.7198 54.1406 65.3752V61.8138C60.502 57.6781 63.5221 50.9001 64.9357 45.9602C66.4779 40.5607 66.4779 36.2527 66.4779 36.0229C66.4779 35.8506 66.4136 35.7357 66.2851 35.6208C66.1566 35.5059 66.0281 35.4485 65.8353 35.4485H17.6426C17.4498 35.4485 17.3213 35.5059 17.1928 35.6208C17.0643 35.7357 17 35.8506 17 36.0229C17 36.1952 17.0643 40.5607 18.5422 45.9602C19.9558 50.9001 22.9759 57.7355 29.4016 61.8713ZM52.8554 64.8008H30.6867V62.1011H52.8554V64.8008ZM18.2851 36.5973H65.1928C65 39.6417 63.7149 54.1742 53.241 60.9522H30.1727C19.6988 54.1742 18.4137 39.6417 18.2851 36.5973Z" fill="black"/>
</svg>
