<svg width="142" height="142" viewBox="0 0 142 142" fill="none" xmlns="http://www.w3.org/2000/svg">
<rect width="142" height="142" fill="#52ba0e"/>
<path d="M73.3894 79.2863C73.2398 79.1368 73.0903 78.9873 72.9408 78.9873C72.6418 78.8377 72.1932 78.8377 71.7446 78.9873C71.5951 78.9873 71.4456 79.1368 71.296 79.2863C71.1465 79.4358 70.997 79.5854 70.997 79.7349C70.8475 79.8844 70.8475 80.1835 70.8475 80.333C70.8475 80.4825 70.8475 80.7815 70.997 80.9311C70.997 81.0806 71.1465 81.2301 71.296 81.3796C71.4456 81.5292 71.5951 81.6787 71.7446 81.6787C71.8941 81.8282 72.1932 81.8282 72.3427 81.8282C72.4922 81.8282 72.7913 81.8282 72.9408 81.6787C73.0903 81.6787 73.2398 81.5292 73.3894 81.3796C73.5389 81.2301 73.6884 81.0806 73.6884 80.9311C73.8379 80.7815 73.8379 80.4825 73.8379 80.333C73.8379 80.1835 73.8379 79.8844 73.6884 79.7349C73.6884 79.5854 73.5389 79.4358 73.3894 79.2863Z" fill="white"/>
<path d="M70.8473 28C44.3818 28 23 49.5313 23 75.8473C23 90.7996 29.7285 104.556 41.5408 113.677C42.1389 114.125 42.8865 114.125 43.3351 113.677C51.2598 107.546 60.8293 104.257 70.8473 104.257C80.8653 104.257 90.4348 107.546 98.3595 113.677C98.6585 113.826 98.9576 113.976 99.2566 113.976C99.5557 113.976 99.8547 113.826 100.154 113.677C111.966 104.556 118.695 90.7996 118.695 75.8473C118.695 49.5313 97.1633 28 70.8473 28ZM69.3521 35.7752C69.3521 34.878 70.0997 34.28 70.8473 34.28C71.5949 34.28 72.3425 34.878 72.3425 35.7752V42.9523C72.3425 43.6999 71.5949 44.4475 70.8473 44.4475C70.0997 44.4475 69.3521 43.6999 69.3521 42.9523V35.7752ZM30.4761 68.6702C30.4761 67.7731 31.2238 67.175 31.9714 67.175H39.1485C39.8961 67.175 40.6437 67.7731 40.6437 68.6702C40.6437 69.4178 39.8961 70.1654 39.1485 70.1654H31.9714C31.2238 70.1654 30.4761 69.5673 30.4761 68.6702ZM43.1856 87.9586L38.1018 93.0424C37.8028 93.3415 37.5037 93.491 37.0551 93.491C36.6066 93.491 36.3075 93.3415 36.0085 93.0424C35.4104 92.4443 35.4104 91.5472 36.0085 90.9491L41.0923 85.8653C41.6903 85.2672 42.5875 85.2672 43.1856 85.8653C43.7837 86.4634 43.7837 87.3605 43.1856 87.9586ZM46.4751 44.4475C47.0732 43.8494 47.9703 43.8494 48.5684 44.4475L53.6522 49.5313C54.2503 50.1294 54.2503 51.0265 53.6522 51.6246C53.3531 51.9236 52.9046 52.0732 52.6055 52.0732C52.3065 52.0732 51.8579 51.9236 51.5589 51.6246L46.4751 46.5408C45.877 45.9427 45.877 44.8961 46.4751 44.4475ZM79.071 87.0615C77.5758 88.5567 75.4825 89.3043 73.5387 89.3043C71.5949 89.3043 69.5016 88.5567 68.0064 87.0615C66.8102 85.8653 49.4655 60.1474 48.7179 58.8017C48.2694 58.2036 48.4189 57.456 48.8674 56.8579C49.316 56.4093 50.2131 56.2598 50.8112 56.7084C53.5026 58.3531 76.6787 73.4549 79.071 75.9968C82.0615 78.9873 82.0615 83.9215 79.071 87.0615ZM95.2195 46.5408L90.1357 51.6246C89.8367 51.9236 89.5376 52.0732 89.0891 52.0732C88.6405 52.0732 88.3415 51.9236 88.0424 51.6246C87.4443 51.0265 87.4443 50.1294 88.0424 49.5313L93.1262 44.4475C93.7243 43.8494 94.6214 43.8494 95.2195 44.4475C95.6681 44.8961 95.6681 45.9427 95.2195 46.5408ZM105.686 93.0424C105.387 93.3415 104.938 93.491 104.639 93.491C104.191 93.491 103.892 93.3415 103.593 93.0424L98.509 87.9586C97.9109 87.3605 97.9109 86.4634 98.509 85.8653C99.1071 85.2672 100.004 85.2672 100.602 85.8653L105.686 90.9491C106.135 91.5472 106.135 92.4443 105.686 93.0424ZM109.723 70.1654H102.546C101.799 70.1654 101.051 69.4178 101.051 68.6702C101.051 67.7731 101.799 67.175 102.546 67.175H109.723C110.471 67.175 111.218 67.7731 111.218 68.6702C111.218 69.5673 110.471 70.1654 109.723 70.1654Z" fill="white"/>
</svg>
