<svg width="80" height="80" viewBox="0 0 80 80" fill="none" xmlns="http://www.w3.org/2000/svg">
<rect width="80" height="80" fill="#fafafa"/>
<path d="M63.6519 25.4642C63.0857 24.2106 62.0126 23.232 60.6294 22.7066L51.9222 19.4009C49.0556 18.3145 45.7368 19.5124 44.5197 22.0733L40.8218 29.8574C40.2345 31.0933 40.2225 32.4638 40.7888 33.7169C41.355 34.9706 42.4281 35.9492 43.8113 36.4746L52.5185 39.7803C53.2233 40.0474 53.9677 40.1814 54.7126 40.1814C55.43 40.1814 56.1492 40.0575 56.8366 39.8093C58.2385 39.3036 59.3337 38.3444 59.921 37.1079L63.6189 29.3238C64.2068 28.0884 64.2182 26.7174 63.6519 25.4642ZM62.5152 28.9051L58.8173 36.6891C58.3554 37.6612 57.4929 38.4168 56.388 38.8157C55.2831 39.2136 54.0756 39.2066 52.9881 38.7932L44.281 35.4875C43.1929 35.0746 42.3483 34.3035 41.9021 33.3159C41.4558 32.3287 41.4648 31.2493 41.9267 30.2767L45.6246 22.4926C46.0871 21.5205 46.9496 20.765 48.0539 20.366C48.5962 20.1709 49.1636 20.0727 49.7287 20.0727C50.3153 20.0727 50.9001 20.1778 51.4538 20.388L60.1615 23.6942C61.249 24.1071 62.0942 24.8782 62.5404 25.8659C62.9861 26.853 62.9771 27.9329 62.5152 28.9051Z" fill="black"/>
<path d="M58.3227 31.9073C59.7515 28.9002 58.1763 25.4144 54.8125 24.1366C51.4468 22.8588 47.5485 24.2674 46.1197 27.275C44.6909 30.282 46.2655 33.7679 49.6299 35.0456C50.4727 35.3652 51.3496 35.517 52.2122 35.517C54.7933 35.5164 57.2514 34.1615 58.3227 31.9073ZM48.0344 27.6589C48.2965 28.0016 48.6222 28.4273 49.456 28.7437C50.2891 29.0595 50.8584 28.9737 51.3161 28.9045C51.7119 28.8455 51.9981 28.8016 52.5073 28.9957C53.0172 29.1887 53.1809 29.4027 53.4071 29.6986C53.6692 30.0413 53.9943 30.467 54.8275 30.7828C55.6606 31.0997 56.2287 31.0129 56.6863 30.9432C56.9521 30.9024 57.1722 30.8756 57.4391 30.9174C57.3779 31.1094 57.3078 31.3003 57.2184 31.4885C57.114 31.7078 56.9886 31.9132 56.8543 32.111C56.2569 31.9668 55.8106 32.0306 55.4405 32.0869C55.0458 32.1459 54.7615 32.1893 54.2516 31.9968C53.7418 31.8032 53.5786 31.5893 53.3525 31.2938C53.0903 30.9512 52.7646 30.5249 51.9315 30.2091C51.0983 29.8933 50.5291 29.9796 50.0714 30.0482C49.6761 30.1072 49.3894 30.1517 48.8801 29.9571C48.3697 29.7641 48.2059 29.5496 47.9798 29.2536C47.7675 28.9764 47.5083 28.645 46.9763 28.3603C47.0423 28.1361 47.1202 27.9125 47.2246 27.6927C47.314 27.5045 47.4225 27.3297 47.5341 27.1576C47.7513 27.3013 47.8826 27.4611 48.0344 27.6589ZM46.7939 29.6214C46.8593 29.6954 46.9223 29.7732 46.9889 29.86C47.251 30.2027 47.5767 30.6284 48.4099 30.9442C49.243 31.2611 49.8135 31.1748 50.2705 31.1056C50.6664 31.0466 50.9514 31.0027 51.4618 31.1962C51.9717 31.3898 52.1354 31.6038 52.3616 31.8997C52.6237 32.2418 52.9494 32.6681 53.782 32.9839C54.6145 33.2998 55.1838 33.2129 55.6408 33.1443C55.7554 33.1266 55.861 33.1132 55.9653 33.1035C55.2671 33.6966 54.4052 34.1068 53.4796 34.3052C53.4736 34.303 53.4706 34.2982 53.4646 34.296C52.932 34.0934 52.7011 33.8365 52.4083 33.5105C52.0742 33.1389 51.6957 32.7175 50.8854 32.4097C50.0702 32.1008 49.4824 32.1577 48.9629 32.207C48.5178 32.251 48.1657 32.2847 47.6385 32.0837C47.6139 32.0746 47.5881 32.0762 47.5629 32.0703C47.0734 31.333 46.8017 30.4885 46.7939 29.6214ZM48.7254 33.3035C48.8519 33.296 48.9737 33.2848 49.0919 33.2735C49.5364 33.2306 49.8885 33.1957 50.4163 33.3968C50.949 33.599 51.1799 33.8558 51.4726 34.1818C51.5428 34.2596 51.616 34.34 51.6933 34.421C51.1571 34.3743 50.6202 34.2553 50.099 34.0574C49.5885 33.8639 49.1291 33.6076 48.7254 33.3035ZM49.1753 25.5817C49.4248 25.8991 49.7649 26.2637 50.5009 26.5425C51.3346 26.8589 51.9039 26.7731 52.3616 26.7039C52.7574 26.6439 53.0436 26.601 53.5534 26.7946C54.0627 26.9876 54.2264 27.2015 54.4526 27.4975C54.7147 27.8402 55.0404 28.2664 55.8736 28.5823C56.3318 28.756 56.7103 28.808 57.0342 28.808C57.2316 28.808 57.4037 28.7876 57.5657 28.7646C57.6359 29.1222 57.6587 29.4884 57.6365 29.8568C57.168 29.785 56.7991 29.8375 56.486 29.8858C56.0919 29.9453 55.8064 29.9893 55.2971 29.7957C54.7879 29.6027 54.6241 29.3887 54.398 29.0927C54.1358 28.7501 53.8101 28.3238 52.977 28.008C52.1438 27.6922 51.5746 27.778 51.1169 27.8471C50.7216 27.9061 50.4355 27.9501 49.9256 27.7565C49.4152 27.5629 49.2514 27.3485 49.0253 27.053C48.8459 26.8187 48.633 26.5463 48.2521 26.2959C48.5316 26.0267 48.8393 25.7854 49.1753 25.5817ZM57.2268 27.7249C56.9647 27.7506 56.7127 27.7367 56.3414 27.5951C55.8316 27.4021 55.6684 27.1881 55.4417 26.8922C55.1796 26.5495 54.8544 26.1238 54.0213 25.8079C53.1881 25.4916 52.6189 25.5774 52.1606 25.6466C51.7647 25.7066 51.4792 25.7495 50.9687 25.5559C50.6017 25.4165 50.4151 25.2653 50.2549 25.0819C50.8806 24.8642 51.5464 24.7372 52.2278 24.7372C52.9344 24.7372 53.6524 24.861 54.3422 25.1238C55.7002 25.639 56.7001 26.5946 57.2268 27.7249Z" fill="black"/>
<path d="M33.7849 49.0046L34.8148 57.4112C34.9785 58.7458 35.7181 59.9469 36.8968 60.793C37.9123 61.5212 39.1449 61.9083 40.4208 61.9083C40.6265 61.9083 40.8335 61.8982 41.041 61.8778L50.4446 60.9571C53.5391 60.6542 55.7806 58.1571 55.4417 55.3908L54.4118 46.9847C54.2487 45.6501 53.5091 44.449 52.3298 43.6029C51.1512 42.7573 49.6798 42.3713 48.1856 42.5182L38.782 43.4388C35.6881 43.7418 33.446 46.2384 33.7849 49.0046ZM38.9128 44.5048L48.3164 43.5841C48.4789 43.5681 48.6421 43.56 48.8034 43.56C49.8081 43.56 50.7781 43.8651 51.5788 44.4394C52.508 45.1059 53.0904 46.0518 53.2188 47.1016L54.2487 55.5082C54.3776 56.5581 54.0375 57.5941 53.2919 58.4241C52.5458 59.2552 51.4883 59.7759 50.3138 59.8906L40.9102 60.8113C38.4755 61.0493 36.2742 59.4718 36.0072 57.2932L34.9773 48.8872V48.8877C34.7104 46.7097 36.4763 44.7434 38.9128 44.5048Z" fill="black"/>
<path d="M39.4434 48.4888C38.3349 49.7237 37.831 51.2701 38.0236 52.8433C38.3949 55.8723 41.2747 58.1243 44.6091 58.1243C44.849 58.1243 45.0908 58.1125 45.3349 58.089C47.0948 57.9168 48.6748 57.1415 49.7827 55.9077C50.8911 54.6728 51.395 53.1264 51.2024 51.5532C51.0099 49.98 50.1431 48.5681 48.7623 47.5772C47.3815 46.5863 45.651 46.137 43.8917 46.308C42.1312 46.4796 40.5519 47.2544 39.4434 48.4888ZM50.0334 52.3725C49.433 52.5076 49.0784 52.758 48.7863 52.9693C48.4744 53.194 48.2495 53.3564 47.6994 53.41C47.1482 53.4663 46.8897 53.3495 46.5304 53.1902C46.1147 53.0052 45.5988 52.7768 44.6979 52.8647C43.7981 52.9527 43.3483 53.2771 42.9872 53.5366C42.6747 53.7618 42.4491 53.9243 41.8979 53.9779C41.3478 54.0337 41.0869 53.9173 40.7276 53.758C40.3911 53.609 39.9838 53.4342 39.3648 53.4181C39.2994 53.1934 39.2454 52.9645 39.216 52.7269C39.1914 52.5248 39.1854 52.3232 39.1884 52.1226C39.4596 52.1516 39.6623 52.2347 39.904 52.3425C40.2567 52.4985 40.6826 52.6872 41.3526 52.6872C41.4726 52.6872 41.6004 52.6808 41.7371 52.6679C42.6369 52.5795 43.0867 52.2556 43.4478 51.9955C43.7604 51.7703 43.9859 51.6079 44.5371 51.5542C45.0884 51.4985 45.3469 51.6148 45.7062 51.7741C46.1213 51.9591 46.6377 52.187 47.5387 52.0996C48.4378 52.0116 48.8871 51.6872 49.2476 51.4272C49.4569 51.276 49.6345 51.1569 49.8906 51.0765C49.9416 51.2711 49.9848 51.4679 50.0094 51.6695C50.0388 51.9049 50.0418 52.1392 50.0334 52.3725ZM39.3396 51.0577C39.4356 50.7017 39.5735 50.3564 39.7589 50.0277C40.0852 50.1676 40.4787 50.3103 41.0623 50.3103C41.1823 50.3103 41.3094 50.3038 41.4462 50.291C42.346 50.2025 42.7958 49.8786 43.1575 49.6186C43.47 49.3933 43.6956 49.2309 44.2468 49.1773C44.7969 49.1215 45.0566 49.2379 45.4159 49.3971C45.831 49.5816 46.3468 49.8084 47.2484 49.7226C48.0443 49.6448 48.4876 49.3816 48.8295 49.1419C49.0886 49.4266 49.307 49.7365 49.4863 50.0647C49.0377 50.2062 48.7437 50.4137 48.4954 50.5928C48.1835 50.8175 47.9586 50.98 47.4085 51.0336C46.8579 51.0894 46.5981 50.973 46.2394 50.8138C45.8244 50.6293 45.3097 50.4019 44.407 50.4883C43.5072 50.5762 43.0574 50.9006 42.6957 51.1607C42.3831 51.3853 42.1576 51.5484 41.607 51.602C41.0563 51.6567 40.7966 51.5408 40.4373 51.3816C40.1506 51.254 39.8129 51.1092 39.3396 51.0577ZM47.9622 48.3805C47.7468 48.5177 47.5189 48.6164 47.117 48.6561C46.5664 48.7118 46.3072 48.5949 45.9479 48.4362C45.5328 48.2512 45.0176 48.0234 44.1154 48.1108C43.2157 48.1987 42.7658 48.5231 42.4041 48.7832C42.0916 49.0078 41.8661 49.1708 41.3154 49.2244C40.9106 49.2647 40.664 49.2121 40.4199 49.1188C41.3256 48.1327 42.6009 47.5118 44.0219 47.3729C45.4447 47.2335 46.8393 47.5928 47.9622 48.3805ZM43.5972 56.9624C43.7022 56.9007 43.8017 56.8385 43.8971 56.7779C44.2618 56.5458 44.5497 56.3629 45.1208 56.3066C45.6954 56.2503 46.0373 56.3736 46.471 56.5302C46.5748 56.5677 46.6845 56.6058 46.7961 56.6423C46.2964 56.838 45.762 56.9677 45.2047 57.0224C44.6541 57.075 44.1143 57.0514 43.5972 56.9624ZM39.8956 54.5951C39.9934 54.631 40.0906 54.6717 40.195 54.7184C40.5477 54.8744 40.9729 55.0632 41.6423 55.0632C41.7629 55.0632 41.8913 55.0573 42.0286 55.0439C42.9284 54.9559 43.3783 54.6315 43.7394 54.3715C44.0519 54.1468 44.2774 53.9843 44.8281 53.9307C45.3787 53.8755 45.6384 53.9918 45.9971 54.1505C46.4128 54.3355 46.9287 54.5613 47.8296 54.476C48.7287 54.3881 49.178 54.0637 49.5385 53.8036C49.6297 53.7382 49.7143 53.6798 49.8012 53.6261C49.6021 54.2042 49.2836 54.75 48.8475 55.2358C48.6772 55.4256 48.4888 55.5983 48.2921 55.7608C48.2843 55.7613 48.2777 55.7581 48.2699 55.7592C47.6934 55.8165 47.3527 55.6921 46.9197 55.5356C46.4248 55.3575 45.8646 55.1532 44.9894 55.2406C44.1089 55.327 43.6266 55.6337 43.2013 55.9039C42.8366 56.1361 42.5487 56.3189 41.9783 56.3752C41.9531 56.3779 41.9327 56.3897 41.9093 56.3951C41.0779 55.9656 40.3773 55.3484 39.8956 54.5951Z" fill="black"/>
<path d="M20.5128 41.9214L29.7807 43.6174C30.1586 43.6866 30.5389 43.7209 30.9162 43.7209C32.0097 43.7209 33.0816 43.434 34.0198 42.8812C35.2818 42.1364 36.1426 41.0018 36.4437 39.686L38.3415 31.4016C38.6432 30.0863 38.3505 28.7404 37.5174 27.6128C36.6842 26.4846 35.4156 25.7152 33.9436 25.446L24.6762 23.7495C23.2024 23.4803 21.6986 23.742 20.4372 24.4862C19.1751 25.2305 18.3144 26.3651 18.0133 27.6809L16.1154 35.9658C15.491 38.6908 17.4632 41.3627 20.5128 41.9214ZM17.2905 36.1803L19.1883 27.8954C19.4259 26.8605 20.1037 25.9672 21.0982 25.3811C21.8378 24.9452 22.683 24.7189 23.5437 24.7189C23.8406 24.7189 24.1387 24.7457 24.4357 24.7999L33.703 26.4964C34.8607 26.7088 35.86 27.3141 36.5162 28.2037C37.1725 29.0922 37.4034 30.1523 37.1665 31.1871L35.2686 39.4709C35.0311 40.5058 34.3533 41.3991 33.3587 41.9852C32.3642 42.5718 31.1784 42.7788 30.0213 42.5664L20.7533 40.8704C18.3522 40.4307 16.7986 38.3267 17.2905 36.1803Z" fill="black"/>
<path d="M20.7345 32.4949C20.3794 34.0456 20.7207 35.6269 21.696 36.9481C22.6714 38.2693 24.1637 39.1712 25.8984 39.4886C26.3453 39.5701 26.791 39.6098 27.2301 39.6098C30.312 39.6098 33.0802 37.6747 33.722 34.8725C34.0771 33.3218 33.7358 31.7405 32.7605 30.4193C31.7852 29.0981 30.2928 28.1962 28.5581 27.8788C24.9753 27.2225 21.4675 29.2938 20.7345 32.4949ZM25.2644 29.163C25.6429 29.0311 26.0394 28.9383 26.4467 28.8852C26.4605 29.3099 26.5913 29.623 26.7058 29.8885C26.8498 30.2225 26.9536 30.4638 26.8432 30.9485C26.7316 31.4327 26.5301 31.6188 26.2512 31.8756C25.9272 32.1732 25.5248 32.5432 25.3436 33.3362C25.1619 34.1293 25.3694 34.6108 25.5362 34.9979C25.6801 35.3325 25.7839 35.5743 25.6729 36.0596C25.5613 36.5449 25.3598 36.7304 25.0803 36.9872C24.8577 37.1921 24.5992 37.4344 24.4001 37.8221C24.051 37.6318 23.7259 37.4087 23.4325 37.1513C23.7319 36.8687 24.0666 36.4982 24.2279 35.7947C24.4097 35.0017 24.2027 34.5196 24.036 34.1325C23.892 33.7979 23.7882 33.5566 23.8992 33.0708C24.0108 32.5861 24.2123 32.4 24.4918 32.1437C24.8152 31.8461 25.2176 31.4761 25.3994 30.6836C25.5583 29.9839 25.4156 29.5271 25.2644 29.163ZM32.1487 31.644C32.1469 31.6504 32.1415 31.6552 32.1403 31.6617C32.0245 32.1678 31.7882 32.4215 31.4889 32.7421C31.1476 33.1089 30.7607 33.5239 30.5843 34.295C30.4068 35.0703 30.5855 35.5749 30.7433 36.0194C30.8788 36.4006 30.9856 36.7014 30.8704 37.2044C30.865 37.228 30.8722 37.25 30.8704 37.2736C30.159 37.8489 29.2869 38.2548 28.3374 38.4334C28.4057 38.361 28.4789 38.2897 28.5611 38.2146C28.8844 37.9165 29.2869 37.5465 29.4686 36.7535C29.6504 35.961 29.4434 35.4789 29.2767 35.0918C29.1327 34.7572 29.029 34.5159 29.1399 34.0301C29.2515 33.5454 29.453 33.3593 29.7326 33.103C30.0559 32.8054 30.4584 32.4354 30.6395 31.6429C30.8213 30.8509 30.6137 30.37 30.447 29.9828C30.405 29.8852 30.369 29.7952 30.3384 29.7051C30.8926 30.0515 31.3767 30.4895 31.7606 31.0097C31.9094 31.2134 32.0353 31.4268 32.1487 31.644ZM32.547 34.6574C32.4354 35.1432 32.2453 35.5963 31.9921 36.0103C31.9585 35.9009 31.9219 35.7953 31.8866 35.6945C31.751 35.3132 31.6442 35.0124 31.7594 34.5094C31.8758 34.0027 32.1115 33.7491 32.4108 33.4279C32.4822 33.3513 32.556 33.2708 32.6291 33.1872C32.6843 33.6719 32.6591 34.1663 32.547 34.6574ZM25.4882 38.2768C25.6021 38.0554 25.7515 37.9079 25.9398 37.7347C26.2631 37.4366 26.6656 37.0666 26.8474 36.2736C27.0291 35.4805 26.8216 34.999 26.6554 34.6119C26.5115 34.2773 26.4071 34.0354 26.5181 33.5502C26.6296 33.0655 26.8312 32.8794 27.1107 32.6231C27.434 32.3255 27.8365 31.9555 28.0183 31.163C28.2 30.371 27.9925 29.8901 27.8257 29.5029C27.7285 29.2783 27.656 29.0906 27.6488 28.8477C27.8707 28.8632 28.0938 28.8874 28.3176 28.9281C28.5773 28.9758 28.828 29.0445 29.0734 29.1233C29.0332 29.6756 29.1915 30.0541 29.3265 30.3673C29.4704 30.7013 29.5742 30.9426 29.4638 31.4274C29.3523 31.9115 29.1507 32.0976 28.8718 32.3544C28.5485 32.652 28.146 33.022 27.9643 33.8151C27.7825 34.6076 27.9895 35.0896 28.1562 35.4768C28.3002 35.8113 28.4039 36.0526 28.293 36.5384C28.1814 37.0237 27.9799 37.2092 27.7003 37.4661C27.4382 37.7074 27.1263 38.0007 26.92 38.5229C26.6608 38.5095 26.4005 38.4854 26.1396 38.4371C25.9164 38.3969 25.7005 38.3406 25.4882 38.2768ZM21.9096 32.7094C22.2053 31.4182 23.0547 30.3528 24.1895 29.6665C24.2693 29.8917 24.3047 30.1153 24.2237 30.4686C24.1122 30.9528 23.9106 31.1389 23.6317 31.3957C23.3078 31.6933 22.9053 32.0633 22.7241 32.8563C22.5424 33.6488 22.7493 34.1309 22.9161 34.518C23.0601 34.8526 23.1638 35.0939 23.0529 35.5797C22.9713 35.9357 22.8399 36.1299 22.666 36.3095C21.8928 35.2371 21.6229 33.9614 21.9096 32.7094Z" fill="black"/>
</svg>
