<?xml version="1.0" encoding="utf-8"?>
<!-- Generator: Adobe Illustrator 22.1.0, SVG Export Plug-In . SVG Version: 6.00 Build 0)  -->
<svg version="1.1" id="Layer_1" xmlns="http://www.w3.org/2000/svg" xmlns:xlink="http://www.w3.org/1999/xlink" x="0px" y="0px"
	 viewBox="0 0 383 95" style="enable-background:new 0 0 383 95;" xml:space="preserve">
<style type="text/css">
	.st0{fill:#80C950;}
	.st1{font-family:'Montserrat-Bold';}
	.st2{font-size:43.1152px;}
	.st3{letter-spacing:5;}
	.st4{fill:#D83D3D;}
</style>
<text transform="matrix(1 0 0 1 96.4 60.0893)" class="st0 st1 st2 st3">ЯМАКАСИ</text>
<path class="st4" d="M76.1,20.6l-3-2l0,0c0.1-0.1,0.3-0.2,0.3-0.4l0.7-1.4c0.1-0.3,0.1-0.6,0-0.8l-1-2c-0.2-0.3-0.5-0.5-0.8-0.5
	h-2.4c-0.1,0-0.3,0-0.4,0.1L67.7,10l-1,0.6l2.3,3.7l-0.6,1.2l-3.7-2.7l-0.6,0.9l4,2.3l-0.2,0.3c-0.1,0.1-0.2,0.2-0.3,0.3l-4.3,2.9
	l-8.5,3.9L42,24.7c-0.9-1.6-2.1-3.2-3.4-4.4c0.9-2.5,1.6-4.8,2-6.2c0.2-0.6-0.4-1.2-1-1.1c-2.1,0.5-6,1.5-8.9,2.3
	c-3.1,0.9-6.4,2.2-7.6,2.7c-0.3,0.1-0.5,0.4-0.5,0.8c0,1.7-0.1,6.6,0.3,9.2c0.4,2.3,1.4,6.3,1.9,8.4c0.2,0.6,0.9,0.8,1.4,0.4
	c1.2-1,3.4-2.8,5.5-4.9c1,0.4,2.2,0.8,3.3,0.9c1.5,0.2,3.4,0.2,4.5,0.3c-0.1,1.3,0,2.5,0.4,2.9c1,1,4.9,6.4,5.4,8.6s0.5,3.5,0,4.2
	c-0.5,0.8-7.6,1.1-10.5,2.7c-2.9,1.5-6,0.8-7,5.5s-3.3,14.1-3.9,14.6s-2.2,1.8-2.7,2.1s-5,0.3-5.3,1.4c-0.3,1,0.3,1.4,1.9,2.3
	s10.3,2,11.2,1.3c0.9-0.8,3-15,4.1-16c1.1-1,9.9-3.9,15.1-3.2c0,0-0.3,5.2,1.4,6.9s13.4,7.1,15.2,9.3c1,1.2,1.6,3.6,1.9,3.8
	c0.2,0.2,0.3,0.4,0.4,0.6c0.3,1.2,1.5,4.9,3.5,4.8c1.9-0.1,0.2-11.6-0.5-15.8c-0.1-0.8-0.9-1.4-1.8-1.3l-1,0.2
	c-0.4,0.1-0.7,0-1.1-0.2l-7.5-4.5c-0.2-1.3,0.2-2.6,1.1-3.5l1.1-1.2c0.4-0.4,0.7-1,0.9-1.6l0.9-2.6c0.1-0.4,0.2-0.9,0.2-1.4v-3.7
	c0-0.6-0.1-1.2-0.4-1.8l-6.1-13.7c-0.3-0.6,0.1-1.4,0.8-1.5l6.6-1c0.8-0.1,1.3-0.9,1.2-1.6c-0.1-0.5-0.5-1-1-1.1l-3.3-0.9
	c-0.4-0.1-0.4-0.7-0.1-0.8l4-1.7l6.5-5.5l0.1-0.1l1-0.6l2,3.2l-1.7-3.4l0.4-0.2L76.1,20.6z"/>
</svg>
